<svg width="193" height="96" viewBox="0 0 193 96" fill="none" xmlns="http://www.w3.org/2000/svg">
<path d="M92.7869 61.6935C92.8863 62.177 93.1845 62.6605 93.6815 63.144C94.1785 63.6275 94.7748 64.0143 95.4706 64.3044C96.1664 64.5945 96.7628 64.8846 97.2598 65.078C97.3592 65.1746 97.558 65.2713 97.6573 65.368H97.8561C97.8561 65.4647 97.8561 65.4647 97.9555 65.4647V65.7548H86.1273V65.4647C86.2267 65.4647 86.2267 65.4647 86.2267 65.368H86.4255L86.9225 65.078C87.4195 64.8846 88.0159 64.5945 88.7117 64.3044C89.4074 64.0143 90.0038 63.5308 90.5008 63.0473C90.9978 62.5638 91.296 62.0803 91.296 61.5968V4.06133C91.1966 3.57784 90.9978 3.09435 90.5008 2.61086C90.0038 2.12736 89.4074 1.74057 88.7117 1.45047C88.0159 1.16038 87.4195 0.870285 86.9225 0.676885C86.7237 0.580188 86.5249 0.580188 86.4255 0.483491C86.3261 0.483491 86.3261 0.483491 86.2267 0.386794H86.1273V0H102.925L121.513 47.5756L142.783 0H159.581V0.386794H159.482C159.383 0.483491 159.383 0.483491 159.283 0.483491C159.184 0.580188 158.985 0.580188 158.786 0.676885C158.289 0.870285 157.693 1.16038 156.997 1.45047C156.301 1.83727 155.705 2.22406 155.208 2.70755C154.711 3.19104 154.413 3.67453 154.413 4.15802V61.6935C154.413 62.177 154.711 62.6605 155.208 63.144C155.705 63.6275 156.301 64.0143 156.997 64.3044C157.693 64.5945 158.289 64.8846 158.786 65.078L159.283 65.368H159.482C159.482 65.4647 159.482 65.4647 159.581 65.4647V65.7548H137.615V65.4647C137.714 65.4647 137.714 65.4647 137.714 65.368H137.913L138.41 65.078C138.907 64.8846 139.503 64.5945 140.199 64.3044C140.895 64.0143 141.491 63.5308 141.988 63.0473C142.485 62.5638 142.783 62.0803 142.783 61.5968V2.99765L116.046 65.7548L92.7869 5.89859V61.6935Z" fill="#BFAB93"/>
<path d="M68.6941 38.6793H68.2965V38.5826C68.1971 38.4859 68.1971 38.4859 68.1971 38.3892C68.0977 38.2925 68.0977 38.0991 67.9983 37.9057C67.7995 37.4222 67.5014 36.7453 67.2032 36.0685C66.8056 35.3916 66.408 34.8114 65.911 34.3279C65.414 33.8444 64.917 33.651 64.4201 33.651H50.7033V64.3044H63.5255C66.6068 64.3044 69.3899 63.6275 71.676 62.177C73.9621 60.8232 75.8507 59.1794 77.3416 57.3421C78.8326 55.5048 79.9259 53.8609 80.7211 52.2171C81.4169 50.6699 81.8145 49.6062 81.9138 48.9293H82.0132L80.6217 65.7548H33.9053V65.4647H34.0047C34.1041 65.368 34.1041 65.368 34.2035 65.368C34.3029 65.2713 34.5017 65.2713 34.7005 65.1747C35.1975 64.9813 35.6945 64.6912 36.3902 64.3044C37.086 64.0143 37.6824 63.6275 38.1794 63.144C38.6764 62.7572 38.9745 62.2737 39.0739 61.7902V4.15802C39.0739 3.67453 38.7758 3.19104 38.2788 2.70755C37.7818 2.22406 37.1854 1.83727 36.4896 1.45047C35.7939 1.16038 35.1975 0.870285 34.7005 0.580188C34.5017 0.580188 34.3029 0.483491 34.2035 0.386794H34.0047C34.0047 0.290091 34.0047 0.290091 33.9053 0.290091V0H80.6217L82.0132 16.8255H81.9138C81.8145 16.1486 81.4169 15.0849 80.7211 13.4411C79.9259 11.8939 78.8326 10.1533 77.3416 8.31605C75.8507 6.47878 73.9621 4.93161 71.676 3.48114C69.3899 2.12736 66.6068 1.45047 63.5255 1.45047H50.7033V32.1038H64.4201C64.917 32.1038 65.414 31.8137 65.911 31.3302C66.408 30.8468 66.8056 30.2666 67.2032 29.5897C67.5014 28.9128 67.7995 28.3326 67.9983 27.8491C68.0977 27.6557 68.0977 27.4623 68.1971 27.3656C68.1971 27.2689 68.1971 27.2689 68.2965 27.1722V27.0755H68.6941V38.6793Z" fill="#BFAB93"/>
<path d="M191.347 38.3336L191.299 38.3796C192.622 37.874 193 37.874 193 38.3336C193 38.5634 192.717 38.7472 191.724 39.1149C191.016 39.3907 189.41 39.9422 187.898 40.4937L185.205 41.5507L185.111 42.2861C184.969 43.2972 184.26 44.1704 183.316 44.538C182.465 44.8598 181.52 44.9057 181.048 44.63C180.623 44.4002 180.623 43.6189 181.048 43.1593C181.379 42.7916 182.654 41.9184 183.41 41.5048L183.788 41.3209L183.504 40.126C183.221 39.0689 183.221 38.8851 183.457 38.3796C183.741 37.7821 184.213 37.4144 184.638 37.4144C184.733 37.4144 184.827 37.4144 184.922 37.4604C185.394 37.6442 185.394 37.92 184.969 38.1498C184.449 38.4255 184.308 38.977 184.544 39.8502C184.78 40.7235 184.874 40.8613 185.205 40.6315C185.347 40.5396 186.528 40.08 187.851 39.5745C189.173 39.0689 190.638 38.6094 191.347 38.3336ZM182.89 43.6189L182.843 43.5729C183.552 43.1133 184.119 42.1941 183.693 42.1941C183.504 42.1941 181.851 43.3891 181.662 43.6648C181.52 43.8946 181.568 43.9406 181.946 43.9406C182.182 43.9406 182.607 43.8027 182.89 43.6189Z" fill="#F2F0F0"/>
<path d="M178.241 35.3461C177.769 35.8976 177.202 36.0814 177.013 35.7137C176.871 35.438 177.769 34.289 178.1 34.335C178.667 34.4269 178.714 34.7945 178.241 35.3461ZM182.257 38.9768H182.21C183.721 38.0117 184.336 37.8278 184.43 38.2874C184.43 38.3793 184.052 38.6551 183.485 39.0687C182.21 39.9419 180.415 40.953 178.997 41.6424C177.013 42.6075 176.257 42.8373 175.265 42.8373C174.604 42.8373 174.368 42.7454 173.943 42.4237C173.565 42.148 173.423 41.9182 173.423 41.5505C173.423 40.953 173.943 39.7121 174.557 38.8389C175.218 37.8738 175.596 37.4602 175.927 37.4602C176.068 37.4602 176.21 37.5521 176.352 37.69C176.541 37.8738 176.446 38.1036 175.738 39.2066C174.415 41.2747 174.32 42.056 175.454 42.056C176.494 42.056 179.186 40.9071 182.257 38.9768Z" fill="#F2F0F0"/>
<path d="M174.995 38.5173L174.9 38.4713C175.798 37.8738 176.034 37.9198 176.034 38.4253C176.034 38.5173 175.845 38.7471 175.514 39.0688C174.57 39.9879 172.774 41.3207 171.641 41.9642C169.562 43.1131 168.381 43.251 167.436 42.5157C166.917 42.102 166.869 41.9642 166.869 41.2748V40.4935L165.736 41.3207C163.562 42.9293 162.003 43.4808 161.153 42.9753C159.972 42.2859 161.578 39.4824 163.893 38.1956C164.554 37.8279 165.169 37.644 165.688 37.644C166.35 37.644 166.869 37.9198 167.153 38.4713L167.389 38.9309L167.861 38.5632C168.381 38.1496 168.57 38.1036 168.853 38.3794C169.042 38.5632 168.995 38.7471 168.57 39.4824C167.956 40.5854 167.767 41.4127 168.05 41.8263C168.239 42.0561 168.381 42.102 168.948 42.0561C170.034 41.9642 171.357 41.2748 173.53 39.5743C174.144 39.1147 174.617 38.7471 174.995 38.5173ZM165.31 40.4475L165.405 40.4935C166.491 39.7122 166.539 39.6662 166.397 39.2066C166.302 38.9309 166.161 38.6551 166.066 38.6092C166.019 38.5632 165.924 38.5173 165.83 38.5173C164.791 38.4713 162.192 40.6314 161.862 41.9642C161.72 42.5616 162.003 42.5157 163.232 41.8263C163.751 41.5046 164.696 40.9071 165.31 40.4475Z" fill="#F2F0F0"/>
<path d="M160.735 38.242L160.782 38.3339C161.821 37.9663 162.294 37.9663 162.294 38.3799C162.294 38.5178 162.057 38.7016 161.679 38.8854C161.065 39.1612 160.073 39.391 159.223 39.437C157.853 39.5289 157.144 39.1612 156.577 38.6097C156.341 38.3799 156.105 38.1961 156.01 38.1961C155.774 38.1961 153.979 39.8965 152.373 41.597C151.57 42.4702 150.814 43.1596 150.672 43.1596C150.531 43.1596 150.342 43.0677 150.247 42.9758C149.964 42.7 150.483 41.4591 151.712 39.5289C152.751 37.8744 153.082 37.5986 153.507 37.9663C153.743 38.1501 153.743 38.1961 153.412 38.7476C153.034 39.2991 153.082 39.2991 154.499 38.1961C156.247 36.8633 156.483 36.8173 157.05 37.7365C157.428 38.288 157.664 38.5637 158.798 38.5637C159.459 38.5637 160.026 38.4718 160.735 38.242Z" fill="#F2F0F0"/>
<path d="M153.558 38.104L153.605 38.1959C153.794 38.4257 153.416 38.8853 152.094 39.6206C149.637 40.9994 147.747 41.459 145.81 41.459C145.007 41.459 144.818 41.5049 144.724 41.6888C144.582 42.0564 143.307 43.0675 142.693 43.2514C141.842 43.5271 141.323 43.4812 140.708 43.0675C139.622 42.2862 139.905 40.6777 141.417 38.8853C141.795 38.4257 142.22 38.0121 142.362 37.9661C142.504 37.9202 142.787 37.7823 143.023 37.6444C143.307 37.4606 143.685 37.3687 144.063 37.3687C144.44 37.3687 144.818 37.4606 145.055 37.6444C145.81 38.3338 145.905 38.8853 145.48 39.9423L145.244 40.5858H145.999C147.558 40.5858 149.543 40.0343 151.621 38.7934C152.849 38.058 153.322 37.8282 153.558 38.104ZM143.448 41.7347L143.779 41.3671L143.354 41.1373C143.023 40.9075 142.551 40.6317 142.362 40.356L141.984 39.8504L141.606 40.4938C141.086 41.3671 140.945 41.9645 141.181 42.3782C141.417 42.7918 141.748 42.7918 142.504 42.4241C142.834 42.2862 143.259 41.9645 143.448 41.7347ZM144.535 39.7125H144.582C144.771 38.8393 144.629 38.3797 144.157 38.3338C144.11 38.3338 144.063 38.3338 144.015 38.3338C143.543 38.3797 143.023 38.9772 143.023 39.4828C143.023 39.8045 143.165 39.9883 143.543 40.2641C143.826 40.4479 144.11 40.5398 144.204 40.4938C144.299 40.4479 144.44 40.0802 144.535 39.7125Z" fill="#F2F0F0"/>
<path d="M109.007 48.5825V48.6285C108.818 48.9502 108.204 49.0421 108.062 48.7664C107.874 48.3527 109.621 44.9518 112.928 39.3448C118.597 29.7854 123.416 22.7077 124.786 22.0183C125.211 21.7885 125.306 21.7885 125.683 21.9724C125.92 22.0643 126.156 22.34 126.25 22.5698C126.534 23.4431 125.825 26.5223 124.125 31.8535C122.707 36.2656 121.243 41.321 121.385 41.4129C121.432 41.4589 122.046 40.8155 124.691 37.8741C126.912 35.3923 128.518 33.7378 133.62 28.6364C137.352 24.8678 138.817 23.535 141.462 21.3749C143.399 19.8123 143.966 19.4906 144.674 19.4906C145.903 19.4906 145.714 20.6396 143.919 24.1784C143.588 24.8678 142.596 26.7521 141.745 28.3606C140.281 31.1182 136.785 38.012 136.218 39.2529C133.809 44.4003 131.116 51.7077 131.352 52.3971C131.541 52.9486 130.644 53.2703 130.313 52.7648C130.077 52.4431 130.455 50.9264 131.73 47.2497C133.384 42.516 136.029 36.7711 140.99 27.3036C143.588 22.34 144.438 20.5477 144.155 20.5477C143.919 20.5477 140.612 23.3052 138.769 25.0057C135.557 27.947 128.518 35.1166 123.51 40.5857C122.188 42.0104 121.29 42.7458 120.865 42.7458C120.487 42.7458 120.109 42.3321 120.109 41.8725C120.109 41.1372 121.621 35.4843 122.802 31.7616C123.463 29.7854 124.125 27.5793 124.313 26.844C124.739 25.1895 125.117 23.1213 124.975 23.1213C124.833 23.1213 123.132 25.2814 121.904 27.0738C120.534 29.05 115.763 36.6792 113.448 40.5857C112.031 42.9755 110.944 44.9058 109.007 48.5825Z" fill="#F2F0F0"/>
<path d="M87.6166 38.9768L87.6639 39.0228C89.3646 37.736 89.5535 38.1036 89.5063 38.3794C89.5063 38.5173 89.0339 39.0688 87.9473 39.896C84.4515 42.5616 82.0422 43.5727 79.9636 43.251C78.3574 42.9753 77.507 42.148 77.6487 40.999C77.8377 39.3905 79.8691 37.644 81.3336 37.644C81.5225 37.644 81.7115 37.69 81.9004 37.7819C82.7036 38.1496 82.6563 38.9768 81.7115 39.7581C81.1918 40.2177 80.6249 40.3097 80.058 40.3556C79.1132 40.4016 79.0187 40.2637 78.877 40.5394C78.7825 40.7233 78.7353 41.091 78.7825 41.3667C78.8298 42.102 79.4439 42.4697 80.6249 42.4697C82.2784 42.4697 84.4042 41.4127 87.6166 38.9768ZM80.058 39.0228L80.1053 38.8849C79.7746 39.1607 79.7273 39.2986 79.8691 39.3905C80.1525 39.5284 80.1525 39.5284 80.7667 39.2526C81.2391 39.0228 81.617 38.5173 81.428 38.3794C81.428 38.3794 81.3808 38.3794 81.3336 38.3794C81.0973 38.3794 80.5305 38.6551 80.058 39.0228Z" fill="#F2F0F0"/>
<path d="M80.2507 38.2418L80.3924 38.0579C80.4397 38.1958 80.1562 38.5175 79.6366 38.9311C78.3138 40.0342 75.7156 41.7346 74.0149 42.424C72.3142 43.1594 71.1804 43.0674 70.6135 42.1942C70.2828 41.6887 70.3773 41.1372 70.9914 39.5746C71.2276 38.9771 71.3694 38.4716 71.3221 38.4256C71.0859 38.2418 68.7711 39.5746 67.4956 40.6316C66.2201 41.6887 64.4721 42.8376 64.1415 42.8376C63.9525 42.8376 63.669 42.7457 63.5273 42.6078C63.3384 42.47 63.2911 42.2402 63.3384 41.9185C63.5273 40.9074 65.3697 37.9201 66.0311 37.5983C66.2201 37.5064 66.3618 37.5064 66.5508 37.6903C66.8342 37.9201 66.8342 37.966 66.409 38.5175C65.7949 39.3448 64.6611 41.1831 64.5194 41.5968C64.4249 41.8265 64.9446 41.5048 66.2673 40.4937C69.3852 38.1498 71.1332 37.3685 71.9363 37.966C72.4087 38.2877 72.3614 38.9311 71.8418 40.172C71.3694 41.275 71.2749 42.1483 71.6056 42.2402C72.4559 42.47 75.0069 41.1831 78.3138 38.8852C79.6366 37.966 80.0618 37.8281 80.2507 38.2418Z" fill="#F2F0F0"/>
<path d="M64.4573 38.9768L64.5045 39.0228C66.2052 37.736 66.3942 38.1036 66.347 38.3794C66.347 38.5173 65.8745 39.0688 64.788 39.896C61.2921 42.5616 58.8828 43.5727 56.8042 43.251C55.198 42.9753 54.3477 42.148 54.4894 40.999C54.6784 39.3905 56.7097 37.644 58.1742 37.644C58.3632 37.644 58.5522 37.69 58.7411 37.7819C59.5442 38.1496 59.497 38.9768 58.5522 39.7581C58.0325 40.2177 57.4656 40.3097 56.8987 40.3556C55.9539 40.4016 55.8594 40.2637 55.7177 40.5394C55.6232 40.7233 55.576 41.091 55.6232 41.3667C55.6704 42.102 56.2846 42.4697 57.4656 42.4697C59.119 42.4697 61.2449 41.4127 64.4573 38.9768ZM56.8987 39.0228L56.946 38.8849C56.6153 39.1607 56.568 39.2986 56.7097 39.3905C56.9932 39.5284 56.9932 39.5284 57.6073 39.2526C58.0797 39.0228 58.4577 38.5173 58.2687 38.3794C58.2687 38.3794 58.2215 38.3794 58.1742 38.3794C57.938 38.3794 57.3711 38.6551 56.8987 39.0228Z" fill="#F2F0F0"/>
<path d="M50.7271 35.3461C50.2547 35.8976 49.6878 36.0814 49.4989 35.7137C49.3571 35.438 50.2547 34.289 50.5854 34.335C51.1523 34.4269 51.1995 34.7945 50.7271 35.3461ZM54.7426 38.9768H54.6954C56.2071 38.0117 56.8212 37.8278 56.9157 38.2874C56.9157 38.3793 56.5378 38.6551 55.9709 39.0687C54.6954 39.9419 52.9002 40.953 51.483 41.6424C49.4989 42.6075 48.743 42.8373 47.7509 42.8373C47.0896 42.8373 46.8533 42.7454 46.4282 42.4237C46.0502 42.148 45.9085 41.9182 45.9085 41.5505C45.9085 40.953 46.4282 39.7121 47.0423 38.8389C47.7037 37.8738 48.0816 37.4602 48.4123 37.4602C48.554 37.4602 48.6958 37.5521 48.8375 37.69C49.0264 37.8738 48.932 38.1036 48.2233 39.2066C46.9006 41.2747 46.8061 42.056 47.9399 42.056C48.9792 42.056 51.672 40.9071 54.7426 38.9768Z" fill="#F2F0F0"/>
<path d="M52.6969 31.2099L52.6496 31.1639C58.0351 31.2099 58.3186 31.2558 58.2241 31.8533C58.1769 32.175 57.3265 32.3129 56.9958 32.0831C56.8069 31.9452 48.6814 31.8993 47.5476 32.0371C46.9807 32.1291 46.8862 32.221 46.3666 33.0942C46.0359 33.5997 45.3273 34.7487 44.8076 35.6219C37.4852 47.847 36.2569 50.3747 36.2569 51.2479C36.2569 51.5696 36.2097 51.9373 36.1152 52.0292C35.879 52.305 35.1704 52.259 34.9814 51.9373C34.6507 51.4318 36.4931 47.6172 39.3276 42.7915C40.3669 40.9991 41.7842 38.6092 42.4455 37.4603C43.1069 36.3113 44.099 34.6568 44.6186 33.7836C45.1383 32.9104 45.5162 32.175 45.469 32.1291C45.3745 32.0371 39.3749 32.3129 37.8159 32.4967C36.6821 32.6346 36.5404 32.6346 36.3514 32.4048C36.0207 32.0371 36.3514 31.8533 37.7687 31.6695C39.2331 31.4856 43.7211 31.2099 45.2328 31.2099H46.1776L47.2169 29.6473C47.9728 28.5443 48.3507 28.0847 48.5869 28.0387C49.2483 27.9468 49.201 28.4524 48.3979 29.7392C47.9728 30.4286 47.6421 31.026 47.6421 31.072C47.6421 31.118 49.9097 31.1639 52.6969 31.2099Z" fill="#F2F0F0"/>
<path d="M36.8408 35.3461C36.3684 35.8976 35.8015 36.0814 35.6126 35.7137C35.4708 35.438 36.3684 34.289 36.6991 34.335C37.266 34.4269 37.3132 34.7945 36.8408 35.3461ZM40.8563 38.9768H40.8091C42.3208 38.0117 42.9349 37.8278 43.0294 38.2874C43.0294 38.3793 42.6515 38.6551 42.0846 39.0687C40.8091 39.9419 39.0139 40.953 37.5967 41.6424C35.6125 42.6075 34.8567 42.8373 33.8646 42.8373C33.2032 42.8373 32.967 42.7454 32.5419 42.4237C32.1639 42.148 32.0222 41.9182 32.0222 41.5505C32.0222 40.953 32.5419 39.7121 33.156 38.8389C33.8174 37.8738 34.1953 37.4602 34.526 37.4602C34.6677 37.4602 34.8094 37.5521 34.9512 37.69C35.1401 37.8738 35.0457 38.1036 34.337 39.2066C33.0143 41.2747 32.9198 42.056 34.0536 42.056C35.0929 42.056 37.7856 40.9071 40.8563 38.9768Z" fill="#F2F0F0"/>
<path d="M34.1565 38.0122V38.0581C34.2982 38.0581 34.4399 38.196 34.4872 38.3339C34.4872 38.4258 34.2037 38.7016 33.7786 39.1152C32.5503 40.2182 30.33 41.8727 29.1962 42.5161C27.0231 43.7111 25.2279 44.1247 24.0469 43.757C23.5745 43.6191 23.0548 43.1136 22.8186 42.6081C22.2517 41.2293 23.102 38.6096 25.2751 35.1168C27.4955 31.532 30.8968 28.2229 33.0227 27.5795C33.4006 27.4876 33.5896 27.4417 33.7313 27.4417C33.873 27.4417 34.0148 27.4876 34.251 27.6255C36.4713 28.9583 32.7393 33.9218 27.212 37.0011C26.5979 37.3228 25.842 37.6905 25.5113 37.7824C24.9445 37.9662 24.8972 38.0581 24.4248 39.299C23.8107 40.9535 23.7162 42.3783 24.1886 42.7919C24.8972 43.4353 26.7396 43.0217 28.8655 41.7348C29.3851 41.4131 31.0386 40.2182 32.0779 39.4829C32.7865 38.9773 34.0148 38.0122 34.1565 38.0122ZM26.7396 34.6112V34.5653C25.9365 35.7602 25.4169 36.7253 25.6058 36.7253C25.7003 36.7253 26.4562 36.3117 27.2593 35.8062C28.8655 34.7951 30.7551 33.2784 31.8417 32.1294C33.1172 30.7966 34.062 29.0042 33.8258 28.4068C33.7786 28.2689 33.7313 28.2229 33.6368 28.2229C33.5424 28.2229 33.4006 28.2689 33.1644 28.3608C31.6055 29.0042 28.4875 32.0375 26.7396 34.6112Z" fill="#F2F0F0"/>
<path d="M2.75551 33.6457L2.89723 33.5998C2.89723 31.9912 5.25929 29.4175 9.08583 26.8438C12.3455 24.6378 17.9672 22.0182 21.4158 21.099C22.6913 20.7773 23.211 20.7313 24.6282 20.7313C26.2344 20.7313 26.3761 20.7313 26.943 21.099C27.8406 21.6505 28.124 22.156 28.124 23.2591C28.0768 25.1893 25.9509 28.5443 23.3999 30.7044C21.841 32.0372 21.5103 32.221 21.1323 31.9453C20.8961 31.7614 20.9906 31.6236 22.0772 30.7044C24.7699 28.4524 26.9903 25.0514 26.9903 23.2131C26.9903 22.5237 26.4706 21.8343 25.8565 21.6505C24.5337 21.2369 21.4158 21.9263 17.8255 23.3969C12.0148 25.7408 6.2986 29.5554 4.64516 32.221C3.74757 33.6457 3.84205 34.427 5.07033 35.3462C6.2986 36.2654 8.04652 36.725 11.4479 37.0007C13.3848 37.1386 13.9517 37.3225 13.7627 37.6901C13.7155 37.782 13.4793 37.9199 13.1958 37.9659C12.9124 38.0118 11.9203 38.2876 10.9755 38.5633C7.76308 39.5744 4.73964 41.5047 2.89723 43.7567C1.7162 45.1814 1.38551 45.9168 1.38551 47.1576C1.38551 48.6283 2.09413 49.5935 3.65309 50.3288C4.31447 50.6505 4.55067 50.6965 5.96791 50.6965C7.81032 50.6965 8.80238 50.4667 10.5031 49.6854C12.6289 48.7202 15.2744 46.79 16.0303 45.687C16.2665 45.3652 16.2665 45.2733 16.0303 45.0895C15.6996 44.8137 15.8886 44.492 16.361 44.492C16.8806 44.492 17.2586 44.8137 17.2586 45.2733C17.2586 46.1465 14.7548 48.4445 12.3927 49.7313C9.18031 51.5237 5.92067 52.0752 3.46412 51.2939C2.09413 50.8343 0.865857 49.8232 0.346204 48.7202C0.0155153 48.0309 -0.0317259 47.7091 0.0155153 46.79C0.0627565 45.8708 0.20448 45.5031 0.771375 44.5839C2.28309 42.0562 5.40101 39.6664 8.99135 38.2876C10.3141 37.782 10.4558 37.6901 10.0307 37.6442C7.9048 37.5063 5.4955 36.7709 4.21998 35.8977C3.46412 35.3462 2.75551 34.2892 2.75551 33.6457Z" fill="#F2F0F0"/>
<path d="M64.9683 90.9628C65.3355 90.9628 65.6553 90.8914 65.9275 90.7485C66.204 90.6056 66.433 90.4206 66.6144 90.1936C66.8002 89.9625 66.9385 89.704 67.0292 89.4181C67.1199 89.1323 67.1653 88.8486 67.1653 88.567C67.1653 88.3442 67.1307 88.1319 67.0616 87.9302C66.9968 87.7242 66.8888 87.5456 66.7375 87.3943C66.5907 87.243 66.3941 87.1232 66.1478 87.0349C65.9015 86.9424 65.5991 86.8962 65.2405 86.8962H64.5276L63.6203 90.8556C63.6851 90.8725 63.7737 90.8872 63.886 90.8998C63.9983 90.9124 64.1172 90.925 64.2424 90.9376C64.3721 90.946 64.4995 90.9523 64.6248 90.9565C64.7544 90.9607 64.8689 90.9628 64.9683 90.9628ZM63.9703 95.1366H60.3993L60.4771 94.8088L61.2872 94.6133C61.3779 94.5923 61.4579 94.5503 61.527 94.4872C61.6004 94.4242 61.648 94.3464 61.6696 94.254L63.2638 87.2682C63.2854 87.1715 63.2746 87.0916 63.2314 87.0286C63.1926 86.9613 63.1342 86.9193 63.0565 86.9025L62.1686 86.7134L62.2399 86.3855H65.5321C65.9426 86.3855 66.3271 86.4275 66.6857 86.5116C67.0443 86.5915 67.3532 86.7155 67.6125 86.8836C67.876 87.0517 68.0834 87.264 68.2346 87.5204C68.3902 87.7726 68.4679 88.0689 68.4679 88.4094C68.4679 88.8759 68.375 89.3025 68.1892 89.6892C68.0078 90.0717 67.7615 90.3996 67.4504 90.6728C67.1437 90.946 66.7829 91.1583 66.3681 91.3096C65.9577 91.4567 65.5213 91.5303 65.059 91.5303C64.9467 91.5303 64.8192 91.5198 64.6767 91.4987C64.5384 91.4735 64.398 91.442 64.2554 91.4042C64.1172 91.3663 63.9854 91.3222 63.8601 91.2718C63.7348 91.2213 63.6333 91.1688 63.5555 91.1141L62.8426 94.254C62.8253 94.3464 62.8361 94.4263 62.875 94.4935C62.9182 94.5608 62.9787 94.6007 63.0565 94.6133L64.048 94.8088L63.9703 95.1366Z" fill="#F2F0F0"/>
<path d="M56.5485 92.1479H52.9128L53.1266 91.2715H56.7688L56.5485 92.1479Z" fill="#F2F0F0"/>
<path d="M139.755 91.9904H136.12L136.334 91.114H139.976L139.755 91.9904Z" fill="#F2F0F0"/>
<path d="M128.632 87.678L126.468 91.2276H129.254L128.794 88.567L128.69 87.9302L128.632 87.678ZM125.593 94.979H122.955L123.026 94.6512L123.564 94.4746C123.655 94.441 123.741 94.3927 123.823 94.3296C123.905 94.2624 123.972 94.1867 124.024 94.1026L128.101 87.5582L129.209 86.0955H129.539L130.9 94.1089C130.913 94.1888 130.944 94.2645 130.991 94.3359C131.043 94.4074 131.11 94.4536 131.192 94.4746L131.827 94.6512L131.756 94.979H128.626L128.697 94.6512L129.799 94.4179L129.351 91.7635H126.143L124.549 94.3927L125.664 94.6512L125.593 94.979Z" fill="#F2F0F0"/>
<path d="M118.759 95.1683C118.254 95.1683 117.787 95.0905 117.359 94.935C116.932 94.7753 116.56 94.5441 116.245 94.2414C115.933 93.9346 115.689 93.5584 115.512 93.1129C115.339 92.6673 115.253 92.1587 115.253 91.5871C115.253 91.1037 115.311 90.6309 115.428 90.1685C115.549 89.7019 115.72 89.2648 115.94 88.8571C116.165 88.4452 116.432 88.0669 116.744 87.7222C117.059 87.3776 117.409 87.0812 117.793 86.8332C118.182 86.5852 118.601 86.3919 119.051 86.2532C119.504 86.1103 119.982 86.0388 120.483 86.0388C120.794 86.0388 121.079 86.0514 121.338 86.0766C121.602 86.0977 121.844 86.1271 122.064 86.1649C122.289 86.1985 122.494 86.2406 122.68 86.291C122.87 86.3372 123.045 86.3856 123.205 86.436L123.529 86.5369L123.101 88.5986H122.673L122.576 87.4385C122.568 87.3712 122.52 87.304 122.434 87.2367C122.352 87.1653 122.244 87.1001 122.11 87.0413C121.98 86.9782 121.829 86.9215 121.656 86.8711C121.488 86.8164 121.31 86.7702 121.125 86.7324C120.943 86.6903 120.76 86.6588 120.574 86.6378C120.388 86.6168 120.213 86.6063 120.049 86.6063C119.738 86.6063 119.435 86.663 119.141 86.7765C118.852 86.8858 118.575 87.0455 118.312 87.2557C118.053 87.4616 117.815 87.7117 117.599 88.0059C117.383 88.3002 117.195 88.6301 117.035 88.9958C116.88 89.3615 116.759 89.7566 116.672 90.1811C116.586 90.6056 116.543 91.0533 116.543 91.524C116.543 91.9864 116.595 92.4109 116.698 92.7976C116.802 93.1801 116.955 93.5122 117.158 93.7938C117.361 94.0712 117.614 94.2877 117.917 94.4432C118.223 94.5945 118.575 94.6702 118.973 94.6702C119.185 94.6702 119.388 94.6513 119.582 94.6134C119.777 94.5714 119.958 94.5231 120.127 94.4684C120.295 94.4096 120.448 94.3486 120.587 94.2856C120.725 94.2183 120.844 94.1616 120.943 94.1153L121.436 91.978C121.457 91.8813 121.444 91.8015 121.397 91.7384C121.354 91.6754 121.295 91.6354 121.222 91.6186L120.256 91.4232L120.34 91.0953H123.879L123.801 91.4232L122.972 91.6186C122.89 91.6396 122.812 91.6817 122.738 91.7447C122.665 91.8036 122.617 91.8813 122.596 91.978L122.356 92.9616C122.317 93.1171 122.28 93.2747 122.246 93.4344C122.211 93.5899 122.179 93.7371 122.149 93.8758C122.118 94.0145 122.092 94.1427 122.071 94.2604C122.049 94.378 122.03 94.4768 122.012 94.5567C121.775 94.6407 121.529 94.7227 121.274 94.8026C121.019 94.8782 120.755 94.9413 120.483 94.9917C120.211 95.0464 119.93 95.0884 119.64 95.1178C119.355 95.1514 119.062 95.1683 118.759 95.1683Z" fill="#F2F0F0"/>
<path d="M109.472 95.1746C108.893 95.1746 108.385 95.0926 107.949 94.9287C107.513 94.7605 107.145 94.5273 106.847 94.2288C106.549 93.9262 106.325 93.5626 106.173 93.1381C106.022 92.7136 105.947 92.2407 105.947 91.7195C105.947 91.2613 105.996 90.8032 106.096 90.345C106.199 89.8827 106.348 89.4413 106.543 89.021C106.741 88.6007 106.983 88.2098 107.269 87.8483C107.558 87.4826 107.891 87.1674 108.267 86.9026C108.643 86.6336 109.059 86.4234 109.517 86.2721C109.975 86.1166 110.472 86.0388 111.008 86.0388C111.617 86.0388 112.142 86.1271 112.583 86.3036C113.024 86.476 113.389 86.7176 113.678 87.0287C113.972 87.3355 114.188 87.6991 114.326 88.1194C114.464 88.5355 114.534 88.9895 114.534 89.4813C114.534 89.889 114.488 90.3135 114.397 90.7549C114.311 91.192 114.175 91.6228 113.989 92.0473C113.808 92.4677 113.579 92.867 113.302 93.2453C113.026 93.6236 112.699 93.9556 112.324 94.2414C111.948 94.5273 111.522 94.7542 111.047 94.9224C110.572 95.0905 110.047 95.1746 109.472 95.1746ZM109.615 94.6702C110.016 94.6702 110.386 94.5945 110.723 94.4432C111.06 94.2919 111.362 94.0859 111.63 93.8253C111.898 93.5647 112.131 93.26 112.33 92.9111C112.533 92.5622 112.702 92.1924 112.836 91.8015C112.97 91.4064 113.071 91.0007 113.14 90.5846C113.209 90.1643 113.244 89.7566 113.244 89.3615C113.244 88.9075 113.19 88.504 113.082 88.1509C112.978 87.7979 112.823 87.5015 112.615 87.262C112.412 87.0224 112.162 86.8416 111.863 86.7197C111.565 86.5978 111.224 86.5369 110.84 86.5369C110.42 86.5369 110.04 86.6168 109.699 86.7765C109.358 86.9362 109.055 87.1527 108.792 87.4259C108.528 87.6949 108.297 88.008 108.098 88.3653C107.904 88.7184 107.744 89.0925 107.619 89.4876C107.493 89.8785 107.398 90.2778 107.333 90.6855C107.273 91.089 107.243 91.4715 107.243 91.833C107.243 92.2533 107.29 92.6379 107.385 92.9868C107.48 93.3356 107.623 93.6362 107.813 93.8884C108.007 94.1364 108.254 94.3297 108.552 94.4684C108.854 94.6029 109.209 94.6702 109.615 94.6702Z" fill="#F2F0F0"/>
<path d="M104.668 94.9792H97.8959L97.9672 94.6513L98.7837 94.4559C98.8745 94.4349 98.9544 94.3928 99.0235 94.3298C99.097 94.2667 99.1445 94.189 99.1661 94.0965L100.76 87.1107C100.782 87.0182 100.771 86.9384 100.728 86.8711C100.685 86.8039 100.624 86.7618 100.547 86.745L99.6651 86.5559L99.7364 86.228H103.243L103.171 86.5559L102.322 86.745C102.227 86.766 102.143 86.8102 102.07 86.8774C102 86.9405 101.955 87.0182 101.933 87.1107L100.261 94.4496H103.631C103.675 94.4496 103.713 94.4391 103.748 94.418C103.787 94.397 103.821 94.3697 103.852 94.3361C103.882 94.3025 103.908 94.2667 103.929 94.2289C103.951 94.1911 103.971 94.1574 103.988 94.128L104.83 92.432H105.252L104.668 94.9792Z" fill="#F2F0F0"/>
<path d="M92.9963 95.1747C92.4174 95.1747 91.9097 95.0927 91.4733 94.9288C91.037 94.7607 90.6697 94.5274 90.3716 94.2289C90.0735 93.9263 89.8488 93.5627 89.6976 93.1382C89.5464 92.7137 89.4708 92.2408 89.4708 91.7196C89.4708 91.2615 89.5205 90.8033 89.6198 90.3452C89.7235 89.8828 89.8726 89.4415 90.067 89.0211C90.2658 88.6008 90.5077 88.2099 90.7929 87.8484C91.0823 87.4827 91.415 87.1675 91.7909 86.9027C92.1668 86.6337 92.5837 86.4235 93.0417 86.2722C93.4997 86.1167 93.9965 86.0389 94.5323 86.0389C95.1415 86.0389 95.6664 86.1272 96.1071 86.3037C96.5478 86.4761 96.9129 86.7178 97.2024 87.0288C97.4962 87.3356 97.7122 87.6992 97.8504 88.1195C97.9887 88.5357 98.0578 88.9896 98.0578 89.4814C98.0578 89.8891 98.0125 90.3136 97.9217 90.755C97.8353 91.1921 97.6992 91.6229 97.5134 92.0475C97.332 92.4678 97.103 92.8671 96.8265 93.2454C96.55 93.6237 96.2238 93.9557 95.8479 94.2416C95.472 94.5274 95.0464 94.7543 94.5712 94.9225C94.0959 95.0906 93.571 95.1747 92.9963 95.1747ZM93.1389 94.6703C93.5407 94.6703 93.9101 94.5946 94.2471 94.4433C94.5841 94.292 94.8866 94.086 95.1544 93.8254C95.4223 93.5648 95.6556 93.2601 95.8544 92.9112C96.0574 92.5624 96.2259 92.1925 96.3599 91.8016C96.4938 91.4065 96.5953 91.0009 96.6645 90.5847C96.7336 90.1644 96.7681 89.7567 96.7681 89.3616C96.7681 88.9076 96.7141 88.5041 96.6061 88.1511C96.5024 87.798 96.3469 87.5017 96.1395 87.2621C95.9364 87.0225 95.6859 86.8417 95.3877 86.7199C95.0896 86.598 94.7483 86.537 94.3638 86.537C93.9447 86.537 93.5645 86.6169 93.2232 86.7766C92.8818 86.9363 92.5794 87.1528 92.3158 87.426C92.0523 87.695 91.8211 88.0081 91.6224 88.3654C91.428 88.7185 91.2681 89.0926 91.1428 89.4877C91.0175 89.8786 90.9225 90.2779 90.8577 90.6856C90.7972 91.0891 90.7669 91.4716 90.7669 91.8331C90.7669 92.2534 90.8145 92.638 90.9095 92.9869C91.0046 93.3358 91.1471 93.6363 91.3372 93.8885C91.5317 94.1365 91.7779 94.3298 92.0761 94.4685C92.3785 94.603 92.7328 94.6703 93.1389 94.6703ZM93.8583 85.5345L93.612 85.3391C93.8324 85.0365 94.0289 84.7675 94.2018 84.5321C94.3746 84.2967 94.5258 84.0907 94.6554 83.9142C94.785 83.7377 94.9017 83.5905 95.0054 83.4729C95.1091 83.351 95.2063 83.2522 95.297 83.1765C95.3877 83.1009 95.4742 83.0462 95.5562 83.0126C95.6427 82.979 95.7334 82.9622 95.8284 82.9622C95.9667 82.9622 96.0747 83.0063 96.1525 83.0946C96.2346 83.1786 96.2756 83.2753 96.2756 83.3846C96.2756 83.4602 96.2648 83.5275 96.2432 83.5863C96.2259 83.6452 96.1957 83.6998 96.1525 83.7503C96.1136 83.8007 96.0639 83.8532 96.0034 83.9079C95.9429 83.9625 95.8738 84.0214 95.796 84.0844L93.8583 85.5345Z" fill="#F2F0F0"/>
<path d="M85.2215 95.1556C84.6383 95.1556 84.1155 95.0674 83.6532 94.8908C83.1909 94.7143 82.7977 94.4642 82.4737 94.1406C82.154 93.8127 81.9077 93.4197 81.7349 92.9616C81.5621 92.5034 81.4756 91.9948 81.4756 91.4358C81.4756 90.9608 81.534 90.4985 81.6506 90.0487C81.7673 89.5948 81.9315 89.1681 82.1432 88.7688C82.3592 88.3695 82.6163 88.0038 82.9144 87.6718C83.2125 87.3355 83.5409 87.0476 83.8995 86.808C84.2624 86.5642 84.6512 86.3751 85.066 86.2406C85.4808 86.1061 85.9107 86.0388 86.3557 86.0388C86.6063 86.0388 86.8655 86.0556 87.1334 86.0893C87.4012 86.1187 87.6605 86.1586 87.9111 86.209C88.1617 86.2595 88.3971 86.3162 88.6175 86.3793C88.8378 86.4381 89.0279 86.497 89.1878 86.5558L88.7795 88.6175H88.3647L88.2286 87.4826C88.22 87.4448 88.2092 87.4133 88.1962 87.3881C88.1833 87.3586 88.166 87.3334 88.1444 87.3124C88.1271 87.2914 88.1055 87.2725 88.0796 87.2557C88.0536 87.2346 88.0277 87.2157 88.0018 87.1989C87.8851 87.1191 87.7555 87.0455 87.613 86.9782C87.4704 86.9068 87.317 86.8437 87.1528 86.7891C86.9886 86.7345 86.8137 86.6924 86.6279 86.663C86.4464 86.6294 86.252 86.6126 86.0446 86.6126C85.7249 86.6126 85.4224 86.6672 85.1373 86.7765C84.8521 86.8858 84.5864 87.0413 84.3402 87.243C84.0982 87.4448 83.88 87.6865 83.6856 87.9681C83.4955 88.2497 83.3313 88.565 83.1931 88.9138C83.0548 89.2585 82.9489 89.6326 82.8755 90.0361C82.802 90.4354 82.7653 90.8515 82.7653 91.2845C82.7653 92.2974 82.9986 93.0729 83.4652 93.611C83.9362 94.1448 84.6491 94.4117 85.6039 94.4117C85.9236 94.4117 86.2196 94.3717 86.4918 94.2919C86.7683 94.2078 87.021 94.1048 87.25 93.9829C87.479 93.861 87.6864 93.7328 87.8722 93.5983C88.058 93.4596 88.2221 93.3335 88.3647 93.2201H88.5138L88.3647 93.8316C88.1789 93.9913 87.9672 94.1511 87.7296 94.3108C87.4963 94.4663 87.2435 94.6071 86.9714 94.7332C86.7035 94.8593 86.4205 94.9602 86.1224 95.0359C85.8286 95.1157 85.5283 95.1556 85.2215 95.1556Z" fill="#F2F0F0"/>
<path d="M79.7857 94.9792H76.299L76.3768 94.6513L77.1998 94.4559C77.2905 94.4349 77.3705 94.3928 77.4396 94.3298C77.5131 94.2667 77.5606 94.189 77.5822 94.0965L79.17 87.1107C79.1916 87.014 79.1829 86.9342 79.1441 86.8711C79.1095 86.8039 79.049 86.7618 78.9626 86.745L78.0618 86.5559L78.1395 86.228H81.6262L81.5484 86.5559L80.7837 86.7324C80.7318 86.745 80.6822 86.7618 80.6346 86.7829C80.5914 86.8039 80.5504 86.8312 80.5115 86.8648C80.4726 86.8984 80.4381 86.9363 80.4078 86.9783C80.3776 87.0161 80.356 87.0603 80.343 87.1107L78.7552 94.0965C78.7336 94.1932 78.7422 94.273 78.7811 94.3361C78.8243 94.3991 78.887 94.4391 78.9691 94.4559L79.8634 94.6513L79.7857 94.9792Z" fill="#F2F0F0"/>
<path d="M72.1488 95.1808C71.9371 95.1808 71.7102 95.1619 71.4683 95.1241C71.2263 95.0862 70.9801 95.0358 70.7295 94.9728C70.4832 94.9097 70.2369 94.8404 69.9907 94.7647C69.7444 94.689 69.5132 94.6113 69.2972 94.5314L69.7703 92.2743H70.1851L70.2693 93.5542C70.2823 93.6424 70.3363 93.7328 70.4314 93.8253C70.5264 93.9135 70.6452 93.9976 70.7878 94.0775C70.9347 94.1531 71.0946 94.2246 71.2674 94.2918C71.4402 94.3591 71.6087 94.4158 71.7729 94.4621C71.9414 94.5083 72.0948 94.5461 72.233 94.5756C72.3756 94.6008 72.4879 94.6134 72.57 94.6134C72.8811 94.6134 73.1727 94.5714 73.4449 94.4873C73.7214 94.399 73.9591 94.275 74.1578 94.1153C74.3609 93.9514 74.5207 93.7517 74.6374 93.5163C74.754 93.281 74.8124 93.0141 74.8124 92.7156C74.8124 92.4004 74.7238 92.1398 74.5467 91.9338C74.3738 91.7237 74.1362 91.545 73.8338 91.3979C73.6739 91.3265 73.5184 91.2592 73.3672 91.1962C73.2203 91.1289 73.0734 91.0637 72.9265 91.0007C72.7796 90.9377 72.6327 90.8746 72.4858 90.8116C72.3432 90.7485 72.1963 90.6813 72.0451 90.6098C71.8377 90.5173 71.6497 90.4101 71.4812 90.2883C71.3127 90.1622 71.1658 90.0213 71.0406 89.8658C70.9196 89.7103 70.8245 89.5422 70.7554 89.3614C70.6906 89.1765 70.6582 88.9789 70.6582 88.7688C70.6582 88.3905 70.7489 88.0353 70.9304 87.7033C71.1118 87.3712 71.3538 87.0812 71.6562 86.8332C71.963 86.5852 72.3173 86.3897 72.7191 86.2468C73.1252 86.1039 73.5529 86.0325 74.0023 86.0325C74.2269 86.0325 74.4559 86.0493 74.6892 86.0829C74.9269 86.1123 75.158 86.1523 75.3827 86.2027C75.6073 86.2489 75.8212 86.3036 76.0243 86.3666C76.2273 86.4255 76.4153 86.4864 76.5881 86.5495L76.1539 88.6364H75.7391L75.603 87.4448C75.5987 87.3775 75.562 87.3103 75.4929 87.243C75.4237 87.1758 75.3373 87.1106 75.2336 87.0476C75.1299 86.9845 75.0111 86.9257 74.8772 86.871C74.7432 86.8164 74.6071 86.7701 74.4689 86.7323C74.3306 86.6903 74.1945 86.6588 74.0606 86.6377C73.931 86.6125 73.81 86.5999 73.6977 86.5999C73.4082 86.5999 73.1468 86.6419 72.9135 86.726C72.6845 86.8101 72.4879 86.9278 72.3237 87.0791C72.1596 87.2304 72.0321 87.4111 71.9414 87.6213C71.855 87.8315 71.8118 88.0626 71.8118 88.3148C71.8118 88.4619 71.8269 88.6049 71.8571 88.7436C71.8917 88.8781 71.95 89.0063 72.0321 89.1282C72.1142 89.2501 72.2201 89.3635 72.3497 89.4686C72.4836 89.5737 72.6478 89.6683 72.8422 89.7523C73.136 89.8784 73.4233 90.0003 73.7042 90.118C73.9893 90.2357 74.2961 90.3765 74.6244 90.5404C74.7929 90.6245 74.9593 90.7191 75.1234 90.8242C75.2876 90.9292 75.4345 91.0532 75.5641 91.1962C75.6981 91.3349 75.8061 91.4967 75.8882 91.6816C75.9703 91.8666 76.0113 92.083 76.0113 92.331C76.0113 92.7051 75.9249 93.0624 75.7521 93.4029C75.5836 93.7433 75.3352 94.0459 75.0068 94.3108C74.6784 94.5756 74.2745 94.7878 73.7949 94.9475C73.3153 95.1031 72.7666 95.1808 72.1488 95.1808Z" fill="#F2F0F0"/>
</svg>
