<svg width="77" height="42" viewBox="0 0 77 42" fill="none" xmlns="http://www.w3.org/2000/svg">
<path d="M35.9544 38.6132C36.0155 38.9158 36.1987 39.2185 36.5041 39.5211C36.8095 39.8237 37.176 40.0658 37.6036 40.2473C38.0311 40.4289 38.3976 40.6105 38.703 40.7315C38.7641 40.792 38.8862 40.8526 38.9473 40.9131H39.0695C39.0695 40.9736 39.0695 40.9736 39.1305 40.9736V41.1552H31.8621V40.9736C31.9231 40.9736 31.9231 40.9736 31.9231 40.9131H32.0453L32.3507 40.7315C32.6561 40.6105 33.0226 40.4289 33.4501 40.2473C33.8777 40.0658 34.2442 39.7632 34.5496 39.4605C34.855 39.1579 35.0382 38.8553 35.0382 38.5527V2.54194C34.9771 2.23933 34.855 1.93671 34.5496 1.6341C34.2442 1.33149 33.8777 1.0894 33.4501 0.907834C33.0226 0.726265 32.6561 0.544701 32.3507 0.423654C32.2285 0.363133 32.1064 0.363133 32.0453 0.302611C31.9842 0.302611 31.9842 0.302611 31.9231 0.24209H31.8621V0H42.1845L53.6064 29.777L66.6775 0H77V0.24209H76.9389C76.8778 0.302611 76.8778 0.302611 76.8168 0.302611C76.7557 0.363133 76.6335 0.363133 76.5113 0.423654C76.206 0.544701 75.8395 0.726265 75.4119 0.907834C74.9844 1.14992 74.6179 1.39201 74.3125 1.69462C74.0071 1.99724 73.8238 2.29985 73.8238 2.60246V38.6132C73.8238 38.9158 74.0071 39.2185 74.3125 39.5211C74.6179 39.8237 74.9844 40.0658 75.4119 40.2473C75.8395 40.4289 76.206 40.6105 76.5113 40.7315L76.8168 40.9131H76.9389C76.9389 40.9736 76.9389 40.9736 77 40.9736V41.1552H63.5014V40.9736C63.5624 40.9736 63.5624 40.9736 63.5624 40.9131H63.6846L63.99 40.7315C64.2954 40.6105 64.6619 40.4289 65.0894 40.2473C65.517 40.0658 65.8835 39.7632 66.1889 39.4605C66.4943 39.1579 66.6775 38.8553 66.6775 38.5527V1.87619L50.2471 41.1552L35.9544 3.69186V38.6132Z" fill="#8C7530"/>
<path d="M21.1207 24.2089H20.8793V24.1484C20.819 24.0879 20.819 24.0879 20.819 24.0274C20.7586 23.9668 20.7586 23.8458 20.6983 23.7247C20.5776 23.4221 20.3966 22.9985 20.2155 22.5748C19.9741 22.1512 19.7328 21.788 19.431 21.4854C19.1293 21.1828 18.8276 21.0618 18.5259 21.0618H10.1983V40.2473H17.9828C19.8534 40.2473 21.5431 39.8237 22.931 38.9158C24.319 38.0685 25.4655 37.0397 26.3707 35.8897C27.2759 34.7398 27.9397 33.7109 28.4224 32.682C28.8448 31.7137 29.0862 31.0479 29.1465 30.6243H29.2069L28.3621 41.1552H0V40.9736H0.0603448C0.12069 40.9131 0.12069 40.9131 0.181034 40.9131C0.241379 40.8526 0.362069 40.8526 0.482759 40.792C0.784483 40.671 1.08621 40.4894 1.50862 40.2473C1.93103 40.0658 2.2931 39.8237 2.59483 39.5211C2.89655 39.279 3.07759 38.9764 3.13793 38.6738V2.60246C3.13793 2.29985 2.9569 1.99724 2.65517 1.69462C2.35345 1.39201 1.99138 1.14992 1.56897 0.907834C1.14655 0.726265 0.784483 0.544701 0.482759 0.363133C0.362069 0.363133 0.241379 0.302611 0.181034 0.24209H0.0603448C0.0603448 0.181565 0.0603448 0.181565 0 0.181565V0H28.3621L29.2069 10.5309H29.1465C29.0862 10.1072 28.8448 9.44148 28.4224 8.4126C27.9397 7.44424 27.2759 6.35484 26.3707 5.20492C25.4655 4.05499 24.319 3.08664 22.931 2.1788C21.5431 1.33149 19.8534 0.907834 17.9828 0.907834H10.1983V20.0934H18.5259C18.8276 20.0934 19.1293 19.9118 19.431 19.6092C19.7328 19.3066 19.9741 18.9435 20.2155 18.5198C20.3966 18.0962 20.5776 17.733 20.6983 17.4304C20.7586 17.3094 20.7586 17.1883 20.819 17.1278C20.819 17.0673 20.819 17.0673 20.8793 17.0068V16.9462H21.1207V24.2089Z" fill="#8C7530"/>
</svg>
